<svg xmlns="http://www.w3.org/2000/svg" viewBox="0 0 16 16" width="64" height="64" shape-rendering="crispEdges"><title>Свиток</title><rect x="1" y="1" width="14" height="1" fill="#22120a"/><rect x="0" y="2" width="1" height="1" fill="#22120a"/><rect x="1" y="2" width="1" height="1" fill="#a86d3b"/><rect x="2" y="2" width="12" height="1" fill="#74441f"/><rect x="14" y="2" width="1" height="1" fill="#42230e"/><rect x="15" y="2" width="1" height="1" fill="#22120a"/><rect x="1" y="3" width="1" height="1" fill="#22120a"/><rect x="2" y="3" width="11" height="1" fill="#f4e6bf"/><rect x="13" y="3" width="1" height="1" fill="#d4b67a"/><rect x="14" y="3" width="1" height="1" fill="#22120a"/><rect x="1" y="4" width="1" height="1" fill="#22120a"/><rect x="2" y="4" width="1" height="1" fill="#f4e6bf"/><rect x="3" y="4" width="9" height="1" fill="#b48c52"/><rect x="12" y="4" width="1" height="1" fill="#f4e6bf"/><rect x="13" y="4" width="1" height="1" fill="#d4b67a"/><rect x="14" y="4" width="1" height="1" fill="#22120a"/><rect x="1" y="5" width="1" height="1" fill="#22120a"/><rect x="2" y="5" width="11" height="1" fill="#f4e6bf"/><rect x="13" y="5" width="1" height="1" fill="#d4b67a"/><rect x="14" y="5" width="1" height="1" fill="#22120a"/><rect x="1" y="6" width="1" height="1" fill="#22120a"/><rect x="2" y="6" width="1" height="1" fill="#f4e6bf"/><rect x="3" y="6" width="8" height="1" fill="#b48c52"/><rect x="11" y="6" width="2" height="1" fill="#f4e6bf"/><rect x="13" y="6" width="1" height="1" fill="#d4b67a"/><rect x="14" y="6" width="1" height="1" fill="#22120a"/><rect x="1" y="7" width="1" height="1" fill="#22120a"/><rect x="2" y="7" width="11" height="1" fill="#f4e6bf"/><rect x="13" y="7" width="1" height="1" fill="#d4b67a"/><rect x="14" y="7" width="1" height="1" fill="#22120a"/><rect x="1" y="8" width="1" height="1" fill="#22120a"/><rect x="2" y="8" width="1" height="1" fill="#f4e6bf"/><rect x="3" y="8" width="9" height="1" fill="#b48c52"/><rect x="12" y="8" width="1" height="1" fill="#f4e6bf"/><rect x="13" y="8" width="1" height="1" fill="#d4b67a"/><rect x="14" y="8" width="1" height="1" fill="#22120a"/><rect x="1" y="9" width="1" height="1" fill="#22120a"/><rect x="2" y="9" width="11" height="1" fill="#f4e6bf"/><rect x="13" y="9" width="1" height="1" fill="#d4b67a"/><rect x="14" y="9" width="1" height="1" fill="#22120a"/><rect x="1" y="10" width="1" height="1" fill="#22120a"/><rect x="2" y="10" width="1" height="1" fill="#f4e6bf"/><rect x="3" y="10" width="5" height="1" fill="#b48c52"/><rect x="8" y="10" width="2" height="1" fill="#f4e6bf"/><rect x="10" y="10" width="2" height="1" fill="#a3201c"/><rect x="12" y="10" width="1" height="1" fill="#f4e6bf"/><rect x="13" y="10" width="1" height="1" fill="#d4b67a"/><rect x="14" y="10" width="1" height="1" fill="#22120a"/><rect x="1" y="11" width="1" height="1" fill="#22120a"/><rect x="2" y="11" width="7" height="1" fill="#f4e6bf"/><rect x="9" y="11" width="1" height="1" fill="#a3201c"/><rect x="10" y="11" width="1" height="1" fill="#d4473b"/><rect x="11" y="11" width="1" height="1" fill="#a3201c"/><rect x="12" y="11" width="1" height="1" fill="#64100f"/><rect x="13" y="11" width="1" height="1" fill="#d4b67a"/><rect x="14" y="11" width="1" height="1" fill="#22120a"/><rect x="1" y="12" width="1" height="1" fill="#22120a"/><rect x="2" y="12" width="8" height="1" fill="#d4b67a"/><rect x="10" y="12" width="1" height="1" fill="#a3201c"/><rect x="11" y="12" width="1" height="1" fill="#64100f"/><rect x="12" y="12" width="2" height="1" fill="#d4b67a"/><rect x="14" y="12" width="1" height="1" fill="#22120a"/><rect x="0" y="13" width="1" height="1" fill="#22120a"/><rect x="1" y="13" width="1" height="1" fill="#a86d3b"/><rect x="2" y="13" width="12" height="1" fill="#74441f"/><rect x="14" y="13" width="1" height="1" fill="#42230e"/><rect x="15" y="13" width="1" height="1" fill="#22120a"/><rect x="1" y="14" width="14" height="1" fill="#22120a"/></svg>